<svg xmlns="http://www.w3.org/2000/svg" xmlns:xlink="http://www.w3.org/1999/xlink" width="325" zoomAndPan="magnify" viewBox="0 0 243.75 231" height="308" preserveAspectRatio="xMidYMid meet" version="1.2"><defs><clipPath id="8cecb535c3"><path d="M 50 62 L 193 62 L 193 168 L 50 168 Z M 50 62 "/></clipPath><clipPath id="702c585c91"><path d="M 6.367188 71.296875 L 6.367188 159.105469 C 6.367188 198.414062 38.234375 230.28125 77.542969 230.28125 L 165.351562 230.28125 C 204.664062 230.28125 236.53125 198.414062 236.53125 159.105469 L 236.53125 71.296875 C 236.53125 31.984375 204.664062 0.117188 165.351562 0.117188 L 77.542969 0.117188 C 38.234375 0.117188 6.367188 31.984375 6.367188 71.296875 Z M 6.367188 71.296875 "/></clipPath><clipPath id="4b196c588d"><path d="M 6.367188 0.117188 L 236.378906 0.117188 L 236.378906 230.132812 L 6.367188 230.132812 Z M 6.367188 0.117188 "/></clipPath><clipPath id="c4b6dc6301"><path d="M 6.367188 71.296875 L 6.367188 159.105469 C 6.367188 198.414062 38.234375 230.28125 77.542969 230.28125 L 165.351562 230.28125 C 204.664062 230.28125 236.53125 198.414062 236.53125 159.105469 L 236.53125 71.296875 C 236.53125 31.984375 204.664062 0.117188 165.351562 0.117188 L 77.542969 0.117188 C 38.234375 0.117188 6.367188 31.984375 6.367188 71.296875 Z M 6.367188 71.296875 "/></clipPath></defs><g id="bdb817c42d"><g clip-rule="nonzero" clip-path="url(#8cecb535c3)"><g clip-rule="nonzero" clip-path="url(#702c585c91)"><path style=" stroke:none;fill-rule:nonzero;fill:#4d135f;fill-opacity:1;" d="M 180.601562 62.847656 L 62.144531 62.847656 C 61.363281 62.847656 60.59375 62.925781 59.828125 63.078125 C 59.066406 63.230469 58.324219 63.453125 57.601562 63.753906 C 56.882812 64.050781 56.199219 64.417969 55.550781 64.847656 C 54.902344 65.28125 54.304688 65.773438 53.753906 66.324219 C 53.203125 66.875 52.710938 67.476562 52.277344 68.125 C 51.84375 68.769531 51.480469 69.453125 51.179688 70.175781 C 50.882812 70.894531 50.65625 71.636719 50.503906 72.402344 C 50.351562 73.164062 50.277344 73.9375 50.277344 74.714844 L 50.277344 155.535156 C 50.277344 156.3125 50.351562 157.085938 50.503906 157.851562 C 50.65625 158.613281 50.882812 159.355469 51.179688 160.074219 C 51.480469 160.796875 51.84375 161.480469 52.277344 162.128906 C 52.710938 162.773438 53.203125 163.375 53.753906 163.925781 C 54.304688 164.476562 54.902344 164.96875 55.550781 165.402344 C 56.199219 165.835938 56.882812 166.199219 57.601562 166.496094 C 58.324219 166.796875 59.066406 167.019531 59.828125 167.171875 C 60.59375 167.324219 61.363281 167.402344 62.144531 167.402344 L 180.601562 167.402344 C 181.378906 167.402344 182.152344 167.324219 182.917969 167.171875 C 183.679688 167.019531 184.421875 166.796875 185.140625 166.496094 C 185.863281 166.199219 186.546875 165.835938 187.195312 165.402344 C 187.839844 164.96875 188.441406 164.476562 188.992188 163.925781 C 189.542969 163.375 190.035156 162.773438 190.46875 162.128906 C 190.902344 161.480469 191.265625 160.796875 191.566406 160.074219 C 191.863281 159.355469 192.085938 158.613281 192.238281 157.851562 C 192.390625 157.085938 192.46875 156.3125 192.46875 155.535156 L 192.46875 74.714844 C 192.46875 73.9375 192.390625 73.164062 192.238281 72.402344 C 192.085938 71.636719 191.863281 70.894531 191.566406 70.175781 C 191.265625 69.453125 190.902344 68.769531 190.46875 68.125 C 190.035156 67.476562 189.542969 66.875 188.992188 66.324219 C 188.441406 65.773438 187.839844 65.28125 187.195312 64.847656 C 186.546875 64.417969 185.863281 64.050781 185.140625 63.753906 C 184.421875 63.453125 183.679688 63.230469 182.917969 63.078125 C 182.152344 62.925781 181.378906 62.847656 180.601562 62.847656 Z M 60.734375 79.527344 L 99.574219 106.394531 L 60.734375 149.105469 Z M 121.371094 108.851562 L 70.140625 73.304688 L 172.601562 73.304688 Z M 108.148438 112.40625 L 115.414062 117.632812 C 116.277344 118.21875 117.207031 118.664062 118.207031 118.96875 C 119.203125 119.273438 120.222656 119.429688 121.269531 119.429688 C 122.3125 119.429688 123.332031 119.273438 124.328125 118.96875 C 125.328125 118.664062 126.257812 118.21875 127.121094 117.632812 L 134.390625 112.40625 L 175.007812 156.945312 L 67.738281 156.945312 Z M 143.066406 106.394531 L 181.90625 79.527344 L 181.90625 149.105469 Z M 143.066406 106.394531 "/></g></g><g clip-rule="nonzero" clip-path="url(#4b196c588d)"><g clip-rule="nonzero" clip-path="url(#c4b6dc6301)"><path style=" stroke:none;fill-rule:nonzero;fill:#4d135f;fill-opacity:1;" d="M 121.371094 0.117188 C 119.492188 0.117188 117.609375 0.164062 115.730469 0.257812 C 113.847656 0.347656 111.972656 0.488281 110.101562 0.671875 C 108.226562 0.855469 106.359375 1.085938 104.496094 1.363281 C 102.636719 1.640625 100.78125 1.960938 98.9375 2.328125 C 97.089844 2.695312 95.253906 3.109375 93.429688 3.566406 C 91.601562 4.023438 89.789062 4.523438 87.988281 5.070312 C 86.1875 5.617188 84.398438 6.207031 82.628906 6.839844 C 80.855469 7.476562 79.101562 8.152344 77.359375 8.871094 C 75.621094 9.59375 73.902344 10.355469 72.199219 11.160156 C 70.5 11.964844 68.820312 12.8125 67.160156 13.699219 C 65.5 14.585938 63.863281 15.511719 62.246094 16.480469 C 60.632812 17.449219 59.042969 18.453125 57.476562 19.5 C 55.914062 20.546875 54.375 21.628906 52.863281 22.75 C 51.351562 23.871094 49.867188 25.03125 48.414062 26.222656 C 46.957031 27.417969 45.53125 28.648438 44.136719 29.910156 C 42.742188 31.175781 41.382812 32.472656 40.050781 33.804688 C 38.71875 35.132812 37.421875 36.496094 36.15625 37.890625 C 34.894531 39.285156 33.664062 40.710938 32.472656 42.164062 C 31.277344 43.621094 30.121094 45.105469 28.996094 46.617188 C 27.875 48.128906 26.792969 49.664062 25.746094 51.230469 C 24.703125 52.796875 23.695312 54.386719 22.726562 56 C 21.761719 57.613281 20.832031 59.25 19.945312 60.910156 C 19.058594 62.570312 18.210938 64.253906 17.40625 65.953125 C 16.601562 67.65625 15.839844 69.375 15.121094 71.113281 C 14.398438 72.851562 13.722656 74.609375 13.089844 76.378906 C 12.453125 78.152344 11.863281 79.941406 11.316406 81.742188 C 10.769531 83.542969 10.269531 85.355469 9.8125 87.179688 C 9.355469 89.007812 8.941406 90.84375 8.574219 92.6875 C 8.207031 94.535156 7.886719 96.386719 7.609375 98.25 C 7.335938 100.113281 7.105469 101.980469 6.917969 103.851562 C 6.734375 105.726562 6.597656 107.601562 6.503906 109.480469 C 6.410156 111.363281 6.367188 113.242188 6.367188 115.125 C 6.367188 117.007812 6.410156 118.886719 6.503906 120.769531 C 6.597656 122.648438 6.734375 124.523438 6.917969 126.398438 C 7.105469 128.269531 7.335938 130.136719 7.609375 132 C 7.886719 133.863281 8.207031 135.714844 8.574219 137.5625 C 8.941406 139.40625 9.355469 141.242188 9.8125 143.070312 C 10.269531 144.894531 10.769531 146.710938 11.316406 148.511719 C 11.863281 150.3125 12.453125 152.097656 13.089844 153.871094 C 13.722656 155.640625 14.398438 157.398438 15.121094 159.136719 C 15.839844 160.875 16.601562 162.597656 17.40625 164.296875 C 18.210938 166 19.058594 167.679688 19.945312 169.339844 C 20.832031 171 21.761719 172.636719 22.726562 174.25 C 23.695312 175.863281 24.703125 177.453125 25.746094 179.019531 C 26.792969 180.585938 27.875 182.125 28.996094 183.636719 C 30.121094 185.148438 31.277344 186.628906 32.472656 188.085938 C 33.664062 189.539062 34.894531 190.964844 36.15625 192.359375 C 37.421875 193.753906 38.71875 195.117188 40.050781 196.449219 C 41.382812 197.777344 42.742188 199.074219 44.136719 200.339844 C 45.53125 201.605469 46.957031 202.832031 48.414062 204.027344 C 49.867188 205.222656 51.351562 206.378906 52.863281 207.5 C 54.375 208.621094 55.914062 209.703125 57.476562 210.75 C 59.042969 211.796875 60.632812 212.800781 62.246094 213.769531 C 63.863281 214.738281 65.5 215.664062 67.160156 216.550781 C 68.820312 217.441406 70.5 218.285156 72.199219 219.089844 C 73.902344 219.894531 75.621094 220.65625 77.359375 221.378906 C 79.101562 222.097656 80.855469 222.777344 82.628906 223.410156 C 84.398438 224.042969 86.1875 224.632812 87.988281 225.179688 C 89.789062 225.726562 91.601562 226.226562 93.429688 226.6875 C 95.253906 227.144531 97.089844 227.554688 98.9375 227.921875 C 100.78125 228.289062 102.636719 228.613281 104.496094 228.886719 C 106.359375 229.164062 108.226562 229.394531 110.101562 229.578125 C 111.972656 229.761719 113.847656 229.902344 115.730469 229.992188 C 117.609375 230.085938 119.492188 230.132812 121.371094 230.132812 C 123.253906 230.132812 125.136719 230.085938 127.015625 229.992188 C 128.894531 229.902344 130.773438 229.761719 132.644531 229.578125 C 134.519531 229.394531 136.386719 229.164062 138.246094 228.886719 C 140.109375 228.613281 141.964844 228.289062 143.808594 227.921875 C 145.65625 227.554688 147.492188 227.144531 149.316406 226.6875 C 151.144531 226.226562 152.957031 225.726562 154.757812 225.179688 C 156.558594 224.632812 158.34375 224.042969 160.117188 223.410156 C 161.890625 222.777344 163.644531 222.097656 165.382812 221.378906 C 167.121094 220.65625 168.84375 219.894531 170.542969 219.089844 C 172.246094 218.285156 173.925781 217.441406 175.585938 216.550781 C 177.246094 215.664062 178.882812 214.738281 180.496094 213.769531 C 182.113281 212.800781 183.703125 211.796875 185.265625 210.75 C 186.832031 209.703125 188.371094 208.621094 189.882812 207.5 C 191.394531 206.378906 192.878906 205.222656 194.332031 204.027344 C 195.789062 202.832031 197.210938 201.605469 198.605469 200.339844 C 200 199.074219 201.363281 197.777344 202.695312 196.449219 C 204.027344 195.117188 205.324219 193.753906 206.585938 192.359375 C 207.851562 190.964844 209.082031 189.539062 210.273438 188.085938 C 211.46875 186.628906 212.625 185.148438 213.746094 183.636719 C 214.867188 182.125 215.953125 180.585938 216.996094 179.019531 C 218.042969 177.453125 219.050781 175.863281 220.015625 174.25 C 220.984375 172.636719 221.914062 171 222.800781 169.339844 C 223.6875 167.679688 224.53125 166 225.335938 164.296875 C 226.140625 162.597656 226.90625 160.875 227.625 159.136719 C 228.34375 157.398438 229.023438 155.640625 229.65625 153.871094 C 230.289062 152.097656 230.882812 150.3125 231.425781 148.511719 C 231.972656 146.710938 232.476562 144.894531 232.933594 143.070312 C 233.390625 141.242188 233.800781 139.40625 234.167969 137.5625 C 234.535156 135.714844 234.859375 133.863281 235.132812 132 C 235.410156 130.136719 235.640625 128.269531 235.824219 126.398438 C 236.011719 124.523438 236.148438 122.648438 236.242188 120.769531 C 236.332031 118.886719 236.378906 117.007812 236.378906 115.125 C 236.378906 113.242188 236.332031 111.363281 236.242188 109.480469 C 236.148438 107.601562 236.011719 105.726562 235.824219 103.851562 C 235.640625 101.980469 235.410156 100.113281 235.132812 98.25 C 234.859375 96.386719 234.535156 94.535156 234.167969 92.6875 C 233.800781 90.84375 233.390625 89.007812 232.933594 87.179688 C 232.476562 85.355469 231.972656 83.542969 231.425781 81.742188 C 230.882812 79.941406 230.289062 78.152344 229.65625 76.378906 C 229.023438 74.609375 228.34375 72.851562 227.625 71.113281 C 226.90625 69.375 226.140625 67.65625 225.335938 65.953125 C 224.53125 64.253906 223.6875 62.570312 222.800781 60.910156 C 221.914062 59.25 220.984375 57.613281 220.015625 56 C 219.050781 54.386719 218.042969 52.796875 216.996094 51.230469 C 215.953125 49.664062 214.867188 48.128906 213.746094 46.617188 C 212.625 45.105469 211.46875 43.621094 210.273438 42.164062 C 209.082031 40.710938 207.851562 39.285156 206.585938 37.890625 C 205.324219 36.496094 204.027344 35.132812 202.695312 33.804688 C 201.363281 32.472656 200 31.175781 198.605469 29.910156 C 197.210938 28.648438 195.789062 27.417969 194.332031 26.222656 C 192.878906 25.03125 191.394531 23.871094 189.882812 22.75 C 188.371094 21.628906 186.832031 20.546875 185.265625 19.5 C 183.703125 18.453125 182.113281 17.449219 180.496094 16.480469 C 178.882812 15.511719 177.246094 14.585938 175.585938 13.699219 C 173.925781 12.8125 172.246094 11.964844 170.542969 11.160156 C 168.84375 10.355469 167.121094 9.59375 165.382812 8.871094 C 163.644531 8.152344 161.890625 7.476562 160.117188 6.839844 C 158.34375 6.207031 156.558594 5.617188 154.757812 5.070312 C 152.957031 4.523438 151.144531 4.023438 149.316406 3.566406 C 147.492188 3.109375 145.65625 2.695312 143.808594 2.328125 C 141.964844 1.960938 140.109375 1.640625 138.246094 1.363281 C 136.386719 1.085938 134.519531 0.855469 132.644531 0.671875 C 130.773438 0.488281 128.894531 0.347656 127.015625 0.257812 C 125.136719 0.164062 123.253906 0.117188 121.371094 0.117188 Z M 121.371094 219.675781 C 119.660156 219.675781 117.953125 219.636719 116.242188 219.550781 C 114.535156 219.46875 112.828125 219.339844 111.125 219.171875 C 109.421875 219.007812 107.722656 218.796875 106.03125 218.546875 C 104.339844 218.292969 102.652344 218.003906 100.976562 217.667969 C 99.296875 217.335938 97.628906 216.960938 95.96875 216.542969 C 94.308594 216.128906 92.660156 215.671875 91.023438 215.175781 C 89.386719 214.679688 87.761719 214.140625 86.148438 213.566406 C 84.539062 212.988281 82.941406 212.375 81.363281 211.71875 C 79.78125 211.0625 78.21875 210.371094 76.671875 209.640625 C 75.125 208.90625 73.597656 208.136719 72.085938 207.332031 C 70.578125 206.523438 69.089844 205.683594 67.621094 204.800781 C 66.15625 203.921875 64.710938 203.007812 63.285156 202.058594 C 61.863281 201.105469 60.464844 200.121094 59.089844 199.101562 C 57.714844 198.082031 56.367188 197.03125 55.046875 195.945312 C 53.722656 194.859375 52.425781 193.742188 51.160156 192.59375 C 49.890625 191.445312 48.652344 190.265625 47.441406 189.054688 C 46.234375 187.84375 45.054688 186.605469 43.90625 185.339844 C 42.753906 184.070312 41.636719 182.773438 40.554688 181.453125 C 39.46875 180.128906 38.414062 178.78125 37.394531 177.40625 C 36.375 176.03125 35.390625 174.632812 34.441406 173.210938 C 33.488281 171.789062 32.574219 170.34375 31.695312 168.875 C 30.816406 167.40625 29.972656 165.917969 29.164062 164.410156 C 28.359375 162.902344 27.589844 161.375 26.859375 159.828125 C 26.128906 158.28125 25.433594 156.714844 24.777344 155.136719 C 24.125 153.554688 23.507812 151.957031 22.933594 150.347656 C 22.355469 148.738281 21.820312 147.113281 21.324219 145.476562 C 20.824219 143.835938 20.371094 142.1875 19.953125 140.53125 C 19.539062 138.871094 19.164062 137.199219 18.828125 135.523438 C 18.496094 133.84375 18.203125 132.160156 17.953125 130.464844 C 17.703125 128.773438 17.492188 127.074219 17.324219 125.375 C 17.15625 123.671875 17.03125 121.964844 16.945312 120.253906 C 16.863281 118.546875 16.820312 116.835938 16.820312 115.125 C 16.820312 113.414062 16.863281 111.703125 16.945312 109.996094 C 17.03125 108.285156 17.15625 106.582031 17.324219 104.878906 C 17.492188 103.175781 17.703125 101.476562 17.953125 99.785156 C 18.203125 98.09375 18.496094 96.40625 18.828125 94.726562 C 19.164062 93.050781 19.539062 91.382812 19.953125 89.722656 C 20.371094 88.0625 20.824219 86.414062 21.324219 84.777344 C 21.820312 83.136719 22.355469 81.515625 22.933594 79.902344 C 23.507812 78.292969 24.125 76.695312 24.777344 75.113281 C 25.433594 73.535156 26.128906 71.96875 26.859375 70.421875 C 27.589844 68.875 28.359375 67.347656 29.164062 65.839844 C 29.972656 64.332031 30.816406 62.84375 31.695312 61.375 C 32.574219 59.90625 33.488281 58.460938 34.441406 57.039062 C 35.390625 55.617188 36.375 54.21875 37.394531 52.84375 C 38.414062 51.46875 39.46875 50.121094 40.554688 48.796875 C 41.636719 47.476562 42.753906 46.179688 43.90625 44.914062 C 45.054688 43.644531 46.234375 42.40625 47.441406 41.195312 C 48.652344 39.984375 49.890625 38.808594 51.160156 37.65625 C 52.425781 36.507812 53.722656 35.390625 55.046875 34.304688 C 56.367188 33.21875 57.714844 32.167969 59.089844 31.148438 C 60.464844 30.128906 61.863281 29.144531 63.285156 28.195312 C 64.710938 27.242188 66.15625 26.328125 67.621094 25.449219 C 69.089844 24.570312 70.578125 23.726562 72.085938 22.917969 C 73.597656 22.113281 75.125 21.34375 76.671875 20.613281 C 78.21875 19.878906 79.78125 19.1875 81.363281 18.53125 C 82.941406 17.878906 84.539062 17.261719 86.148438 16.683594 C 87.761719 16.109375 89.386719 15.570312 91.023438 15.074219 C 92.660156 14.578125 94.308594 14.121094 95.96875 13.707031 C 97.628906 13.292969 99.296875 12.917969 100.976562 12.582031 C 102.652344 12.25 104.339844 11.957031 106.03125 11.707031 C 107.722656 11.453125 109.421875 11.246094 111.125 11.078125 C 112.828125 10.910156 114.535156 10.785156 116.242188 10.699219 C 117.953125 10.617188 119.660156 10.574219 121.371094 10.574219 C 123.082031 10.574219 124.792969 10.617188 126.503906 10.699219 C 128.210938 10.785156 129.917969 10.910156 131.621094 11.078125 C 133.324219 11.246094 135.019531 11.453125 136.714844 11.707031 C 138.40625 11.957031 140.089844 12.25 141.769531 12.582031 C 143.449219 12.917969 145.117188 13.292969 146.777344 13.707031 C 148.4375 14.121094 150.085938 14.578125 151.722656 15.074219 C 153.359375 15.570312 154.984375 16.109375 156.59375 16.683594 C 158.207031 17.261719 159.800781 17.878906 161.382812 18.53125 C 162.964844 19.1875 164.527344 19.878906 166.074219 20.613281 C 167.621094 21.34375 169.148438 22.113281 170.65625 22.917969 C 172.167969 23.726562 173.65625 24.570312 175.121094 25.449219 C 176.589844 26.328125 178.035156 27.242188 179.457031 28.195312 C 180.882812 29.144531 182.28125 30.128906 183.652344 31.148438 C 185.027344 32.167969 186.375 33.21875 187.699219 34.304688 C 189.023438 35.390625 190.316406 36.507812 191.585938 37.65625 C 192.851562 38.808594 194.09375 39.984375 195.300781 41.195312 C 196.511719 42.40625 197.691406 43.644531 198.839844 44.914062 C 199.988281 46.179688 201.105469 47.476562 202.191406 48.796875 C 203.277344 50.121094 204.328125 51.46875 205.347656 52.84375 C 206.367188 54.21875 207.355469 55.617188 208.304688 57.039062 C 209.253906 58.460938 210.171875 59.90625 211.050781 61.375 C 211.929688 62.84375 212.773438 64.332031 213.578125 65.839844 C 214.386719 67.347656 215.15625 68.875 215.886719 70.421875 C 216.617188 71.96875 217.3125 73.535156 217.964844 75.113281 C 218.621094 76.695312 219.234375 78.292969 219.8125 79.902344 C 220.390625 81.515625 220.925781 83.136719 221.421875 84.777344 C 221.917969 86.414062 222.375 88.0625 222.792969 89.722656 C 223.207031 91.382812 223.582031 93.050781 223.914062 94.726562 C 224.25 96.40625 224.542969 98.09375 224.792969 99.785156 C 225.042969 101.476562 225.253906 103.175781 225.421875 104.878906 C 225.589844 106.582031 225.714844 108.285156 225.796875 109.996094 C 225.882812 111.703125 225.925781 113.414062 225.925781 115.125 C 225.925781 116.835938 225.882812 118.546875 225.796875 120.253906 C 225.714844 121.964844 225.589844 123.671875 225.421875 125.375 C 225.253906 127.074219 225.042969 128.773438 224.792969 130.464844 C 224.542969 132.160156 224.25 133.84375 223.914062 135.523438 C 223.582031 137.199219 223.207031 138.871094 222.792969 140.53125 C 222.375 142.1875 221.917969 143.835938 221.421875 145.476562 C 220.925781 147.113281 220.390625 148.738281 219.8125 150.347656 C 219.234375 151.957031 218.621094 153.554688 217.964844 155.136719 C 217.3125 156.714844 216.617188 158.28125 215.886719 159.828125 C 215.15625 161.375 214.386719 162.902344 213.578125 164.410156 C 212.773438 165.917969 211.929688 167.40625 211.050781 168.875 C 210.171875 170.34375 209.253906 171.789062 208.304688 173.210938 C 207.355469 174.632812 206.367188 176.03125 205.347656 177.40625 C 204.332031 178.78125 203.277344 180.128906 202.191406 181.453125 C 201.105469 182.773438 199.988281 184.070312 198.839844 185.339844 C 197.691406 186.605469 196.511719 187.84375 195.300781 189.054688 C 194.09375 190.265625 192.851562 191.445312 191.585938 192.59375 C 190.316406 193.742188 189.023438 194.859375 187.699219 195.945312 C 186.375 197.03125 185.027344 198.082031 183.652344 199.101562 C 182.28125 200.121094 180.882812 201.105469 179.457031 202.058594 C 178.035156 203.007812 176.589844 203.921875 175.121094 204.800781 C 173.65625 205.683594 172.167969 206.523438 170.65625 207.332031 C 169.148438 208.136719 167.621094 208.90625 166.074219 209.640625 C 164.527344 210.371094 162.964844 211.0625 161.382812 211.71875 C 159.800781 212.375 158.207031 212.988281 156.59375 213.566406 C 154.984375 214.140625 153.359375 214.679688 151.722656 215.175781 C 150.085938 215.671875 148.4375 216.128906 146.777344 216.542969 C 145.117188 216.960938 143.449219 217.335938 141.769531 217.667969 C 140.089844 218.003906 138.40625 218.292969 136.714844 218.546875 C 135.019531 218.796875 133.324219 219.007812 131.621094 219.171875 C 129.917969 219.339844 128.210938 219.46875 126.503906 219.550781 C 124.792969 219.636719 123.082031 219.675781 121.371094 219.675781 Z M 121.371094 219.675781 "/></g></g><g style="fill:#000000;fill-opacity:1;"><g transform="translate(120.178423, 70.845806)"><path style="stroke:none" d="M 1.265625 0.078125 C 1.054688 0.078125 0.878906 0.00390625 0.734375 -0.140625 C 0.597656 -0.285156 0.53125 -0.460938 0.53125 -0.671875 C 0.53125 -0.878906 0.597656 -1.054688 0.734375 -1.203125 C 0.878906 -1.347656 1.054688 -1.421875 1.265625 -1.421875 C 1.460938 -1.421875 1.628906 -1.347656 1.765625 -1.203125 C 1.910156 -1.054688 1.984375 -0.878906 1.984375 -0.671875 C 1.984375 -0.460938 1.910156 -0.285156 1.765625 -0.140625 C 1.628906 0.00390625 1.460938 0.078125 1.265625 0.078125 Z M 1.265625 0.078125 "/></g></g></g></svg>