<svg xmlns="http://www.w3.org/2000/svg" xmlns:xlink="http://www.w3.org/1999/xlink" width="325" zoomAndPan="magnify" viewBox="0 0 243.75 237" height="316" preserveAspectRatio="xMidYMid meet" version="1.2"><defs><clipPath id="3f4f7ad1f2"><path d="M 6.367188 0.121094 L 236.378906 0.121094 L 236.378906 230.136719 L 6.367188 230.136719 Z M 6.367188 0.121094 "/></clipPath></defs><g id="77f2c5044a"><g clip-rule="nonzero" clip-path="url(#3f4f7ad1f2)"><path style=" stroke:none;fill-rule:nonzero;fill:#4d135f;fill-opacity:1;" d="M 58.109375 0.121094 L 184.5 0.121094 C 198.785156 0.121094 211.722656 5.914062 221.152344 15.347656 C 230.449219 24.644531 236.378906 37.714844 236.378906 51.863281 L 236.378906 178.257812 C 236.378906 192.539062 230.449219 205.476562 221.152344 214.910156 C 211.722656 224.207031 198.785156 230.136719 184.5 230.136719 L 58.109375 230.136719 C 43.960938 230.136719 30.890625 224.207031 21.59375 214.910156 C 12.160156 205.476562 6.367188 192.539062 6.367188 178.257812 L 6.367188 51.863281 C 6.367188 37.714844 12.160156 24.644531 21.59375 15.347656 C 30.890625 5.914062 43.960938 0.121094 58.109375 0.121094 Z M 184.5 20.601562 L 58.109375 20.601562 C 49.484375 20.601562 41.667969 24.105469 36.011719 29.765625 C 30.351562 35.425781 26.847656 43.242188 26.847656 51.863281 L 26.847656 178.257812 C 26.847656 186.882812 30.351562 194.695312 36.011719 200.355469 C 41.667969 206.152344 49.484375 209.652344 58.109375 209.652344 L 184.5 209.652344 C 193.125 209.652344 200.941406 206.152344 206.601562 200.355469 C 212.394531 194.695312 215.898438 186.882812 215.898438 178.257812 L 215.898438 51.863281 C 215.898438 43.242188 212.394531 35.425781 206.601562 29.765625 C 200.941406 24.105469 193.125 20.601562 184.5 20.601562 Z M 184.5 20.601562 "/></g><path style=" stroke:none;fill-rule:nonzero;fill:#4d135f;fill-opacity:1;" d="M 185.847656 40.277344 C 188.679688 40.277344 191.375 41.355469 193.125 43.242188 C 195.011719 45.128906 196.226562 47.6875 196.226562 50.515625 C 196.226562 53.347656 195.011719 56.042969 193.125 57.792969 C 191.375 59.679688 188.679688 60.890625 185.847656 60.890625 C 183.019531 60.890625 180.460938 59.679688 178.574219 57.792969 C 176.6875 56.042969 175.609375 53.347656 175.609375 50.515625 C 175.609375 47.6875 176.6875 45.128906 178.574219 43.242188 C 180.460938 41.355469 183.019531 40.277344 185.847656 40.277344 Z M 185.847656 40.277344 "/><path style=" stroke:none;fill-rule:nonzero;fill:#4d135f;fill-opacity:1;" d="M 121.304688 59.277344 C 136.800781 59.277344 150.679688 65.609375 160.785156 75.578125 C 170.890625 85.6875 177.226562 99.699219 177.226562 115.0625 C 177.226562 130.558594 170.890625 144.4375 160.785156 154.542969 C 150.679688 164.648438 136.800781 170.980469 121.304688 170.980469 C 105.945312 170.980469 91.929688 164.648438 81.824219 154.542969 C 71.851562 144.4375 65.519531 130.558594 65.519531 115.0625 C 65.519531 99.699219 71.851562 85.6875 81.824219 75.578125 C 91.929688 65.609375 105.945312 59.277344 121.304688 59.277344 Z M 146.234375 90.265625 C 139.898438 83.933594 131.007812 79.890625 121.304688 79.890625 C 111.601562 79.890625 102.84375 83.933594 96.511719 90.265625 C 90.179688 96.601562 86.136719 105.359375 86.136719 115.0625 C 86.136719 124.761719 90.179688 133.65625 96.511719 139.988281 C 102.84375 146.324219 111.601562 150.230469 121.304688 150.230469 C 131.007812 150.230469 139.898438 146.324219 146.234375 139.988281 C 152.566406 133.65625 156.472656 124.761719 156.472656 115.0625 C 156.472656 105.359375 152.566406 96.601562 146.234375 90.265625 Z M 146.234375 90.265625 "/><g style="fill:#000000;fill-opacity:1;"><g transform="translate(120.178423, 226.988716)"><path style="stroke:none" d="M 1.265625 0.078125 C 1.054688 0.078125 0.878906 0.00390625 0.734375 -0.140625 C 0.597656 -0.285156 0.53125 -0.460938 0.53125 -0.671875 C 0.53125 -0.878906 0.597656 -1.054688 0.734375 -1.203125 C 0.878906 -1.347656 1.054688 -1.421875 1.265625 -1.421875 C 1.460938 -1.421875 1.628906 -1.347656 1.765625 -1.203125 C 1.910156 -1.054688 1.984375 -0.878906 1.984375 -0.671875 C 1.984375 -0.460938 1.910156 -0.285156 1.765625 -0.140625 C 1.628906 0.00390625 1.460938 0.078125 1.265625 0.078125 Z M 1.265625 0.078125 "/></g></g></g></svg>